{"title":"The.Universe.S07E02.Alien.Sounds","uid":7343323,"size":721661634,"categoryP":"video","categoryS":"tv_shows","magnet":"?xt=urn:btih:e9de06a9c684b50dadff57cba9aa68e68964c6f9&amp;dn=The.Universe.S07E02.Alien.Sounds&amp;tr=udp%3A%2F%2Ftracker.openbittorrent.com%3A80&amp;tr=udp%3A%2F%2Fopen.demonii.com%3A1337&amp;tr=udp%3A%2F%2Ftracker.coppersurfer.tk%3A6969&amp;tr=udp%3A%2F%2Fexodus.desync.com%3A6969","seeders":0,"leechers":1,"uploader":"movieboy_5280","files":-1,"time":1339287567,"description":"Another upload that included this episode had serious audio sync problems.\nI've corrected that.\n\nEpisode summary:\n\nWhat does the Universe sound like? From the sweep of a pulsar, to the deafening roar of our boiling sun this \n\nepisode explores the undiscovered soundscapes of the solar system, the galaxy, and the entire cosmos. And, is it \n\ntrue that in space nobody can hear you scream?!? Our scientists reveal that there are places in the Universe \n\nthat prove this sci-fi statement wrong. \n\nDetails:\n\nGeneral\n\nComplete name                            : The.Universe.S07E02.Alien.Sounds.avi\nFormat                                   : AVI\nFormat/Info                              : Audio Video Interleave\nFile size                                : 688 MiB\nDuration                                 : 43mn 12s\nOverall bit rate                         : 2 227 Kbps\n\nVideo\n\n\nID                                       : 0\nFormat                                   : MPEG-4 Visual\nFormat profile                           : Simple@L0\nFormat settings, BVOP                    : No\nFormat settings, QPel                    : No\nFormat settings, GMC                     : No warppoints\nFormat settings, Matrix                  : Default (H.263)\nCodec ID                                 : XVID\nCodec ID/Hint                            : XviD\nDuration                                 : 43mn 12s\nBit rate                                 : 2 089 Kbps\nWidth                                    : 1 600 pixels\nHeight                                   : 1 080 pixels\nDisplay aspect ratio                     : 3:2\nFrame rate                               : 23.976 fps\nColor space                              : YUV\nChroma subsampling                       : 4:2:0\nBit depth                                : 8 bits\nScan type                                : Progressive\nCompression mode                         : Lossy\nBits/(Pixel*Frame)                       : 0.050\nStream size                              : 646 MiB (94%)\nWriting library                          : XviD 1.1.2 (UTC 2006-11-01)\n\nAudio\n\nID                                       : 1\nFormat                                   : MPEG Audio\nFormat version                           : Version 1\nFormat profile                           : Layer 3\nCodec ID                                 : 55\nCodec ID/Hint                            : MP3\nDuration                                 : 43mn 12s\nBit rate mode                            : Constant\nBit rate                                 : 128 Kbps\nChannel(s)                               : 2 channels\nSampling rate                            : 44.1 KHz\nCompression mode                         : Lossy\nStream size                              : 39.6 MiB (6%)\nAlignment                                : Split accross interleaves\nInterleave, duration                     : 42 ms (1.00 video frame)\nWriting library                          : LAMELAME_MAJOR_VERSI","torrent":{"xt":"urn:btih:e9de06a9c684b50dadff57cba9aa68e68964c6f9","amp;dn":"The.Universe.S07E02.Alien.Sounds","amp;tr":["udp%3A%2F%2Ftracker.openbittorrent.com%3A80","udp%3A%2F%2Fopen.demonii.com%3A1337","udp%3A%2F%2Ftracker.coppersurfer.tk%3A6969","udp%3A%2F%2Fexodus.desync.com%3A6969"],"infoHash":"e9de06a9c684b50dadff57cba9aa68e68964c6f9","infoHashBuffer":{"type":"Buffer","data":[233,222,6,169,198,132,181,13,173,255,87,203,169,170,104,230,137,100,198,249]},"announce":[],"urlList":[]}}